<?xml version="1.0" encoding="UTF-8"?> <svg xmlns="http://www.w3.org/2000/svg" width="390" height="70" viewBox="0 0 390 70" fill="none"> <rect width="390" height="70" fill="none"></rect> <rect width="70" height="70" fill="none"></rect> <path d="M70 37.7344L47.2135 14.9479L9.84372 53.5937L26.25 70H70V37.7344Z" fill="url(#paint0_linear)"></path> <path fill-rule="evenodd" clip-rule="evenodd" d="M48.9642 19.5787C48.9642 15.8465 45.9387 12.821 42.2066 12.821H39.2252V8.84593C39.2252 8.07755 38.6023 7.45465 37.834 7.45465C37.0656 7.45465 36.4427 8.07755 36.4427 8.84593V12.821H21.3374V8.84593C21.3374 8.07755 20.7145 7.45465 19.9461 7.45465C19.1777 7.45465 18.5548 8.07755 18.5548 8.84593V12.821H14.7785C11.0463 12.821 8.02081 15.8465 8.02081 19.5787V48.9943C8.02081 52.7264 11.0463 55.7519 14.7785 55.7519H25.4174C25.0345 54.8719 24.7572 53.9418 24.595 52.9694H14.7785C12.5831 52.9694 10.8034 51.1897 10.8034 48.9943V24.7463H46.1816V48.9943C46.1816 51.1897 44.4019 52.9694 42.2066 52.9694H32.2215C32.7077 53.9643 33.5752 54.9679 34.9466 55.7519H42.2066C45.9387 55.7519 48.9642 52.7264 48.9642 48.9943V19.5787ZM46.1816 21.9637V19.5787C46.1816 17.3833 44.4019 15.6036 42.2066 15.6036H14.7785C12.5831 15.6036 10.8034 17.3833 10.8034 19.5787V21.9637H46.1816Z" fill="#236D9E"></path> <path d="M19.9461 7.45465C20.7145 7.45465 21.3374 8.07755 21.3374 8.84593V12.821H36.4427V8.84593C36.4427 8.07755 37.0656 7.45465 37.834 7.45465C38.6023 7.45465 39.2252 8.07755 39.2252 8.84593V12.821H42.2066C45.9387 12.821 48.9642 15.8465 48.9642 19.5787V48.9943C48.9642 52.7264 45.9387 55.7519 42.2066 55.7519H14.7785C11.0463 55.7519 8.02081 52.7264 8.02081 48.9943V19.5787C8.02081 15.8465 11.0463 12.821 14.7785 12.821H18.5548V8.84593C18.5548 8.07755 19.1777 7.45465 19.9461 7.45465Z" fill="#236D9E"></path> <path d="M10.8047 24.7461H46.1823V48.9581C46.1823 51.173 44.3868 52.9685 42.1719 52.9685H32.2215C32.8197 54.1193 33.5505 54.9172 34.9587 55.7642H25.4225C24.9975 54.7158 24.7924 54.0895 24.5951 52.9685H14.8151C12.6002 52.9685 10.8047 51.173 10.8047 48.9581V24.7461Z" fill="#D9F1FF"></path> <path d="M10.8036 19.6149C10.8036 17.4 12.5992 15.6045 14.8141 15.6045H42.1721C44.387 15.6045 46.1825 17.4 46.1825 19.6149V21.9633H10.8036V19.6149Z" fill="#87CBFF"></path> <path d="M39.7514 31.4515C40.4093 30.4382 40.1211 29.0835 39.1078 28.4256C38.0945 27.7678 36.7397 28.056 36.0819 29.0693L27.8373 41.7691L20.3369 31.8755C19.6071 30.9128 18.235 30.724 17.2722 31.4539C16.3095 32.1837 16.1207 33.5559 16.8506 34.5186L26.2328 46.8944C26.6633 47.4623 27.3435 47.7849 28.0557 47.759C28.7678 47.733 29.4227 47.3618 29.8108 46.764L39.7514 31.4515Z" fill="#00A634"></path> <path fill-rule="evenodd" clip-rule="evenodd" d="M41.6739 62.7083C50.4533 62.7083 57.4964 57.3289 58.5591 50.0483C60.7554 49.3381 62.3437 47.2764 62.3437 44.8438C62.3437 41.8234 59.8953 39.375 56.875 39.375C53.8547 39.375 51.4062 41.8234 51.4062 44.8438C51.4062 47.1576 52.8432 49.1358 54.8734 49.9346C53.8859 54.9001 48.8776 59.0625 41.6739 59.0625C33.4836 59.0625 29.8958 54.7383 29.8958 50.9163C29.8958 49.9096 29.0797 49.0934 28.0729 49.0934C27.0661 49.0934 26.25 49.9096 26.25 50.9163C26.25 57.4623 32.2629 62.7083 41.6739 62.7083ZM58.6979 44.8438C58.6979 45.8505 57.8818 46.6667 56.875 46.6667C55.8682 46.6667 55.0521 45.8505 55.0521 44.8438C55.0521 43.837 55.8682 43.0208 56.875 43.0208C57.8818 43.0208 58.6979 43.837 58.6979 44.8438Z" fill="#00A634"></path> <path d="M91.2641 48.8362C92.6077 48.8362 93.4139 48.0169 93.9514 46.7881L104.739 21.8432C105.123 20.9831 104.355 20.1638 103.511 20.1638H99.4029C98.4047 20.1638 97.5985 21.024 97.1762 22.048L89.9204 39.2924L82.6646 22.048C82.2423 21.024 81.4361 20.1638 80.4379 20.1638H76.3301C75.4856 20.1638 74.7177 20.9831 75.1016 21.8432L85.8894 46.7881C86.4269 48.0169 87.2331 48.8362 88.5767 48.8362H91.2641Z" fill="#236D9E"></path> <path d="M131.3 20.1638H109.686C108.726 20.1638 107.92 20.9831 107.92 22.0071V46.911C107.92 47.976 108.688 48.8362 109.686 48.8362H131.223C132.221 48.8362 132.989 47.976 132.989 46.952V45.0268C132.989 44.0028 132.221 43.1836 131.261 43.1836H114.984V37.2853H129.035C129.994 37.2853 130.801 36.4251 130.801 35.4011V33.5169C130.801 32.4929 129.994 31.6328 129.035 31.6328H114.984V25.8164H131.3C132.259 25.8164 133.066 24.9972 133.066 23.9322V22.048C133.066 20.9831 132.259 20.1638 131.3 20.1638Z" fill="#236D9E"></path> <path d="M135.988 20.1638C134.99 20.1638 134.222 20.9831 134.222 22.048V23.9322C134.222 24.9972 134.99 25.8164 135.988 25.8164H144.357V46.9929C144.357 48.0169 145.163 48.8362 146.123 48.8362H149.655C150.615 48.8362 151.421 48.0169 151.421 46.9929V25.8164H159.79C160.788 25.8164 161.556 24.9972 161.556 23.9322V22.048C161.556 20.9831 160.788 20.1638 159.79 20.1638H135.988Z" fill="#236D9E"></path> <path d="M183.148 48.8362C184.107 48.8362 185.106 48.017 185.451 47.0339L192.054 27.3729V46.911C192.054 47.976 192.822 48.8362 193.82 48.8362H197.199C198.197 48.8362 198.965 47.976 198.965 46.911V22.089C198.965 21.024 198.197 20.1638 197.237 20.1638H189.597C188.599 20.1638 187.639 21.024 187.332 22.048L181.804 39.1285L176.276 22.048C175.969 21.024 175.009 20.1638 174.011 20.1638H166.371C165.411 20.1638 164.643 21.024 164.643 22.089V46.911C164.643 47.976 165.411 48.8362 166.409 48.8362H169.788C170.786 48.8362 171.554 47.976 171.554 46.911V27.3729L178.157 47.0339C178.502 48.017 179.501 48.8362 180.46 48.8362H183.148Z" fill="#236D9E"></path> <path d="M202.12 46.9929C201.851 48.0169 202.427 48.8362 203.425 48.8362H207.11C208.108 48.8362 209.068 48.017 209.337 46.952L210.604 41.9138H223.925V46.952C223.925 48.017 224.693 48.8362 225.691 48.8362H229.223C230.183 48.8362 230.989 48.0169 230.989 46.9929V22.0071C230.989 21.024 230.298 20.1638 229.377 20.1638H219.28C213.829 20.1638 208.416 21.5975 206.842 27.9463L202.12 46.9929ZM213.637 29.8305C214.251 27.3729 216.17 25.8164 218.589 25.8164H223.925V36.2613H211.986L213.637 29.8305Z" fill="#236D9E"></path> <path d="M241.431 48.8362C242.391 48.8362 243.197 47.976 243.197 46.952V29.7895L253.562 46.952C254.177 47.976 255.29 48.8362 256.288 48.8362H262.507C263.505 48.8362 264.273 47.976 264.273 46.952V22.048C264.273 20.9831 263.505 20.1638 262.507 20.1638H259.282C258.323 20.1638 257.517 20.9831 257.517 22.0071V40.6441L246.191 22.048C245.615 21.1059 244.541 20.1638 243.619 20.1638H238.091C237.131 20.1638 236.363 21.024 236.363 22.048V46.952C236.363 47.976 237.17 48.8362 238.129 48.8362H241.431Z" fill="#236D9E"></path> <path d="M267.428 46.9929C267.16 48.0169 267.736 48.8362 268.734 48.8362H272.419C273.417 48.8362 274.377 48.017 274.646 46.952L275.913 41.9138H289.234V46.952C289.234 48.017 290.002 48.8362 291 48.8362H294.532C295.492 48.8362 296.298 48.0169 296.298 46.9929V22.0071C296.298 21.024 295.607 20.1638 294.686 20.1638H284.589C279.138 20.1638 273.725 21.5975 272.151 27.9463L267.428 46.9929ZM278.946 29.8305C279.56 27.3729 281.479 25.8164 283.898 25.8164H289.234V36.2613H277.295L278.946 29.8305Z" fill="#236D9E"></path> <path d="M322.672 38.596C322.634 41.4633 321.251 43.3475 317.029 43.3475H313.189C308.698 43.3475 307.201 41.1766 307.201 34.5C307.201 27.8234 308.698 25.6525 314.226 25.6525H317.566C319.869 25.6525 321.635 26.3079 322.326 27.7006C322.979 29.0113 323.785 29.5847 324.86 29.5847H327.087C327.586 29.5847 329.006 29.2161 329.006 27.3729C329.006 22.9901 323.44 20 318.219 20H314.034C304.859 20 300.137 24.5466 300.137 34.5C300.137 44.4534 304.859 49 312.997 49H317.22C325.474 49 329.621 44.7401 329.621 37.3672V35.1554C329.621 34.1314 328.814 33.2712 327.855 33.2712H318.449C317.489 33.2712 316.683 34.1314 316.683 35.1554V36.7119C316.683 37.7359 317.489 38.596 318.449 38.596H322.672Z" fill="#236D9E"></path> <path d="M356.844 20.1638H335.23C334.271 20.1638 333.464 20.9831 333.464 22.0071V46.911C333.464 47.976 334.232 48.8362 335.23 48.8362H356.768C357.766 48.8362 358.534 47.976 358.534 46.952V45.0268C358.534 44.0028 357.766 43.1836 356.806 43.1836H340.528V37.2853H354.579C355.539 37.2853 356.345 36.4251 356.345 35.4011V33.5169C356.345 32.4929 355.539 31.6328 354.579 31.6328H340.528V25.8164H356.844C357.804 25.8164 358.61 24.9972 358.61 23.9322V22.048C358.61 20.9831 357.804 20.1638 356.844 20.1638Z" fill="#236D9E"></path> <path d="M373.702 38.3503C376.121 38.3503 377.503 40.0297 378.463 41.6271L381.649 46.952C382.263 48.017 383.569 48.8362 384.528 48.8362H389.02C390.018 48.8362 390.287 48.017 389.673 46.952L386.256 41.1766C384.72 38.596 383.569 37.1624 381.995 36.548C385.872 35.7288 389.059 33.6808 389.059 29.2571C389.059 23.6045 384.874 20.1638 379.269 20.1638H363.798C362.838 20.1638 362.07 20.9831 362.07 22.048V46.952C362.07 47.976 362.876 48.8362 363.836 48.8362H367.368C368.366 48.8362 369.134 47.976 369.134 46.952V38.3503H373.702ZM377.119 25.8164C379.269 25.8164 381.995 26.6356 381.995 29.2571C381.995 31.8785 379.269 32.6977 377.119 32.6977H369.134V25.8164H377.119Z" fill="#236D9E"></path> <defs> <linearGradient id="paint0_linear" x1="29.3229" y1="33.9438" x2="70.1348" y2="70.2129" gradientUnits="userSpaceOnUse"> <stop offset="0.0625" stop-color="#002542" stop-opacity="0.21"></stop> <stop offset="0.233103" stop-color="#002542" stop-opacity="0.07"></stop> <stop offset="0.4408" stop-color="#002542" stop-opacity="0"></stop> </linearGradient> </defs> </svg> 